HIERARCHY
ROOT Hips
{
	OFFSET -3.958830 18.904000 13.208200
	CHANNELS 6 Xposition Yposition Zposition Zrotation Yrotation Xrotation 
	JOINT LHipJoint
	{
		OFFSET 0.000000 0.000000 0.000000
		CHANNELS 3 Zrotation Yrotation Xrotation
		JOINT LeftUpLeg
		{
			OFFSET 1.800000 -1.400000 0.085000
			CHANNELS 3 Zrotation Yrotation Xrotation
			JOINT LeftLeg
			{
				OFFSET 2.215000 -6.000000 0.000000
				CHANNELS 3 Zrotation Yrotation Xrotation
				JOINT LeftFoot
				{
					OFFSET 2.500000 -6.900000 0.000000
					CHANNELS 3 Zrotation Yrotation Xrotation
					JOINT LeftToeBase
					{
						OFFSET 0.200000 -0.500000 1.950000
						CHANNELS 3 Zrotation Yrotation Xrotation
						End Site
						{
							OFFSET 0.000000 0.000000 0.000000
						}
					}
				}
			}
		}
	}
	JOINT RHipJoint
	{
		OFFSET 0.000000 0.000000 0.000000
		CHANNELS 3 Zrotation Yrotation Xrotation
		JOINT RightUpLeg
		{
			OFFSET -1.800000 -1.400000 0.085000
			CHANNELS 3 Zrotation Yrotation Xrotation
			JOINT RightLeg
			{
				OFFSET -2.215000 -6.000000 0.000000
				CHANNELS 3 Zrotation Yrotation Xrotation
				JOINT RightFoot
				{
					OFFSET -2.500000 -6.900000 0.000000
					CHANNELS 3 Zrotation Yrotation Xrotation
					JOINT RightToeBase
					{
						OFFSET -0.200000 -0.500000 1.950000
						CHANNELS 3 Zrotation Yrotation Xrotation
						End Site
						{
							OFFSET 0.000000 0.000000 0.000000
						}
					}
				}
			}
		}
	}
	JOINT LowerBack
	{
		OFFSET 0.000000 0.000000 0.000000
		CHANNELS 3 Zrotation Yrotation Xrotation
		JOINT Spine
		{
			OFFSET -0.087000 1.940000 -0.288900
			CHANNELS 3 Zrotation Yrotation Xrotation
			JOINT Spine1
			{
				OFFSET 0.000000 1.950000 0.060000
				CHANNELS 3 Zrotation Yrotation Xrotation
				JOINT Neck
				{
					OFFSET 0.000000 0.000000 0.000000
					CHANNELS 3 Zrotation Yrotation Xrotation
					JOINT Neck1
					{
						OFFSET 0.000000 1.600000 0.340000
						CHANNELS 3 Zrotation Yrotation Xrotation
						JOINT Head
						{
							OFFSET 0.000000 1.667000 -0.240000
							CHANNELS 3 Zrotation Yrotation Xrotation
							End Site
							{
								OFFSET 0.000000 0.000000 0.000000
							}
						}
					}
				}
				JOINT LeftShoulder
				{
					OFFSET 0.000000 0.000000 0.000000
					CHANNELS 3 Zrotation Yrotation Xrotation
					JOINT LeftArm
					{
						OFFSET 2.700000 1.550000 -0.730000
						CHANNELS 3 Zrotation Yrotation Xrotation
						JOINT LeftForeArm
						{
							OFFSET 5.450000 0.000000 0.000000
							CHANNELS 3 Zrotation Yrotation Xrotation
							JOINT LeftHand
							{
								OFFSET 3.450000 0.000000 0.000000
								CHANNELS 3 Zrotation Yrotation Xrotation
								JOINT LeftHandIndex1
								{
									OFFSET 0.750000 0.000000 0.000000
									CHANNELS 3 Zrotation Yrotation Xrotation
									End Site
									{
										OFFSET 0.000000 0.000000 0.000000
									}
								}
							}
						}
					}
				}
				JOINT RightShoulder
				{
					OFFSET 0.000000 0.000000 0.000000
					CHANNELS 3 Zrotation Yrotation Xrotation
					JOINT RightArm
					{
						OFFSET -2.700000 1.550000 -0.730000
						CHANNELS 3 Zrotation Yrotation Xrotation
						JOINT RightForeArm
						{
							OFFSET -5.450000 0.000000 0.000000
							CHANNELS 3 Zrotation Yrotation Xrotation
							JOINT RightHand
							{
								OFFSET -3.450000 0.000000 0.000000
								CHANNELS 3 Zrotation Yrotation Xrotation
								JOINT RightHandIndex1
								{
									OFFSET -0.750000 0.000000 0.000000
									CHANNELS 3 Zrotation Yrotation Xrotation
									End Site
									{
										OFFSET 0.000000 0.000000 0.000000
									}
								}
							}
						}
					}
				}
			}
		}
	}
}
MOTION
Frames: 7
Frame Time: 0.016667
-1.448460 17.521110 0.140770 -2.622292 -15.337136 -4.638640 -15.016190 11.234600 5.739562 26.148323 -3.127476 -34.578586 -25.013121 14.840200 28.216348 0.521247 8.418535 1.230675 0.363260 0.614960 0.110050 18.566076 -10.631467 2.129507 -12.459761 5.246615 -22.570284 0.396093 -8.986414 47.296712 -1.057542 -6.820403 1.786746 0.042950 0.026830 0.257760 -4.239667 0.039213 -8.863689 21.715359 -8.187235 41.394641 -12.051382 1.211128 8.361682 5.792342 1.391522 -12.873233 1.826336 -0.811931 54.821528 0.633660 0.416200 -18.401210 -12.631743 -13.353290 4.922655 -35.563100 -3.022546 -12.619219 -14.744737 -53.262490 3.549949 -3.100648 3.224123 0.551780 -0.214380 0.568850 0.252530 0.831626 14.866978 9.308964 55.542670 7.921648 -22.434361 -19.531803 66.108599 -17.771516 2.049055 -1.095765 0.134710 0.198510 -0.136090 0.258960 
-1.436650 17.519820 0.156520 -2.398069 -15.249549 -4.987070 -15.027046 11.264411 5.744733 26.128833 -3.279240 -34.206504 -25.513690 14.938455 28.094534 0.524960 8.492755 1.207797 0.339560 0.582430 0.100380 18.550711 -10.640588 2.081782 -12.825634 5.038393 -22.240159 0.306593 -9.028412 47.417560 -1.056232 -6.853788 1.770760 0.027330 0.048660 0.266840 -4.197430 -0.048674 -8.855317 20.815875 -7.845796 41.722696 -11.595893 1.235603 8.709107 5.539704 1.188599 -12.938924 1.171994 -0.495821 55.022081 0.632860 0.514930 -18.381520 -12.013472 -13.606847 4.976888 -35.511355 -3.615323 -12.713401 -15.565232 -54.623837 3.897401 -3.132818 3.213357 0.554490 -0.200660 0.557330 0.232600 0.767560 15.152874 9.353483 55.715268 7.839168 -22.673654 -20.367856 65.783447 -18.120094 2.031160 -1.059873 0.127950 0.212890 -0.100890 0.253160 
-1.418520 17.511250 0.187740 -2.585223 -15.229876 -5.226509 -15.043189 11.223468 5.811225 26.873352 -3.211012 -33.642274 -26.716404 15.219420 27.573053 0.523517 8.693753 1.139778 0.306160 0.522770 0.091910 18.549446 -10.619770 2.012810 -12.763129 4.868700 -21.743214 0.092852 -9.011714 47.566866 -1.047345 -6.888051 1.752554 0.009680 0.076560 0.273820 -4.180380 -0.094343 -8.864856 20.057591 -7.499795 41.780366 -11.204112 1.291229 9.209925 5.166041 0.712177 -12.930585 -0.179528 0.120419 55.202375 0.490370 0.722180 -18.086890 -10.872059 -13.517495 4.910989 -35.411549 -4.693730 -12.637442 -18.132377 -57.248891 5.205670 -3.181914 3.214111 0.567200 -0.179560 0.526850 0.197030 0.429556 15.172913 9.339799 56.050379 7.831036 -22.565344 -19.715560 65.086568 -17.396900 2.012208 -1.052387 0.102740 0.226470 -0.048010 0.229970 
-1.406600 17.501640 0.223300 -2.870071 -15.217236 -5.558159 -15.065326 11.182509 5.870603 27.743796 -3.122730 -32.965810 -27.823804 15.515053 27.152101 0.450787 8.951388 1.035171 0.265990 0.423750 0.093640 18.546363 -10.591554 1.942100 -12.558977 4.730187 -21.122517 -0.152432 -9.005948 47.879582 -1.035831 -6.962394 1.702719 -0.001100 0.101660 0.285990 -4.152712 -0.152655 -8.870527 18.867660 -6.923432 42.011939 -10.662776 1.484665 9.755878 4.597337 0.179032 -12.776231 -1.710127 0.892910 54.806469 0.364540 1.202030 -18.326900 -9.153976 -13.166061 4.680994 -35.082388 -6.449601 -12.260188 -21.703741 -60.631519 7.284671 -3.249660 3.214680 0.621510 -0.155610 0.479410 0.133550 -0.106635 14.916051 9.207462 56.839429 8.110345 -22.228269 -19.010039 63.746933 -16.365929 1.971155 -1.045235 0.039500 0.234840 0.034240 0.167690 
-1.402250 17.498250 0.257460 -3.320077 -15.337437 -5.958810 -15.105290 11.171536 5.939318 28.781019 -2.924223 -32.292471 -28.767928 15.877336 26.932473 0.368659 9.260486 0.920040 0.195500 0.311560 0.058550 18.530296 -10.535488 1.859536 -12.019746 4.613974 -20.230423 -0.473334 -8.910557 47.992728 -1.019008 -7.000779 1.686207 -0.018840 0.167670 0.300980 -4.080205 -0.306966 -8.873579 17.377165 -6.135847 42.269167 -9.876943 1.871519 10.448387 3.994499 -0.528352 -12.664065 -3.778227 1.792570 54.330896 -0.397410 1.770210 -18.785230 -7.607784 -13.166226 4.490174 -34.293409 -8.463109 -11.741095 -25.891284 -64.281763 10.049180 -3.349886 3.178233 0.674760 -0.107290 0.430160 0.079860 -0.422275 15.172038 9.143655 57.151040 8.202131 -21.966136 -18.339920 62.080465 -15.241601 1.910941 -0.999347 -0.038260 0.283630 0.142490 0.121030 
-1.404520 17.494740 0.294610 -3.606032 -15.362585 -6.388348 -15.148183 11.207845 5.985469 29.550668 -2.797720 -31.571658 -29.497689 16.145254 26.669837 0.304983 9.500406 0.827673 0.113360 0.199150 0.026770 18.502870 -10.498865 1.759333 -11.606974 4.345228 -19.132334 -0.849320 -8.716899 47.722416 -0.979277 -6.962048 1.691947 -0.045050 0.231420 0.307990 -3.978536 -0.522771 -8.857324 15.284879 -5.088813 42.275929 -8.825822 2.315025 11.227763 3.138388 -1.413086 -12.641719 -6.351958 2.743514 53.572658 -1.048240 2.275600 -19.199430 -6.005917 -13.426519 4.451749 -33.203204 -10.543951 -11.170582 -30.704819 -68.307898 13.684703 -3.451719 3.141825 0.705370 -0.062330 0.383150 0.015540 -0.320636 15.847173 9.164137 57.092016 8.131405 -21.740408 -17.702406 60.322518 -14.156630 1.875190 -0.938232 -0.104540 0.333120 0.248730 0.086350 
-1.411240 17.504660 0.327780 -3.659016 -15.147286 -7.142513 -15.191391 11.329217 5.968481 29.855767 -2.856162 -30.601951 -29.824981 16.273467 26.543947 0.207663 9.681506 0.755388 0.039300 0.090620 0.004860 18.461256 -10.476816 1.647022 -11.440452 3.945963 -17.799126 -1.251352 -8.540695 47.483588 -0.941233 -6.938613 1.687728 -0.059480 0.301680 0.305150 -3.843691 -0.863441 -8.799205 12.602645 -3.967530 42.450030 -7.475027 2.671899 12.151714 1.928182 -2.666784 -12.618595 -9.816435 4.289529 52.338429 -1.244060 2.880990 -19.893860 -4.282961 -14.011189 4.438120 -31.710114 -13.077664 -10.540362 -35.176349 -71.866414 17.399251 -3.547591 3.083883 0.748610 -0.022450 0.332710 -0.048090 0.319896 17.012334 9.231317 56.524747 8.010973 -21.603998 -17.515648 58.509364 -13.332888 1.835043 -0.861385 -0.187090 0.398430 0.353070 0.048510 
